<?xml version="1.0" encoding="utf-8"?>
<!-- Generator: Adobe Illustrator 23.0.1, SVG Export Plug-In . SVG Version: 6.00 Build 0)  -->
<svg version="1.1" id="_x2014_ÎÓÈ_x5F_1" xmlns="http://www.w3.org/2000/svg" xmlns:xlink="http://www.w3.org/1999/xlink"
	 x="0px" y="0px" viewBox="0 0 1417.3 1417.3" style="enable-background:new 0 0 1417.3 1417.3;" xml:space="preserve">
<style type="text/css">
	.st0{fill:#47AAC9;}
</style>
<g>
	<path class="st0" d="M97.3,73.3L97.3,73.3l25.9,6.2l-6.2,25.9c-3.5,14.3,5.4,28.7,19.7,32.2h0c14.3,3.5,28.7-5.4,32.2-19.7
		l12.5-51.8c3.5-14.3-5.4-28.7-19.7-32.2l0,0l-25.9-6.2L142,1.8c0.1-0.6,0.3-1.2,0.4-1.8H87.6l-9.9,41.1
		C74.2,55.4,83,69.8,97.3,73.3z"/>
	<path class="st0" d="M26.6,607.9L26.6,607.9c7-12.9,2.2-29.1-10.7-36.2L0,563.2v58.5C10.5,622.9,21.2,617.8,26.6,607.9z"/>
	<path class="st0" d="M724.5,239.5l26.6,1.5l-1.5,26.6v0c-0.8,14.7,10.4,27.3,25.1,28.1l53.2,3c14.7,0.8,27.3-10.4,28.1-25.1l0,0
		c0.8-14.7-10.4-27.3-25.1-28.1l-26.6-1.5l1.5-26.6v0c0.8-14.7-10.4-27.3-25.1-28.1l-53.2-3c-14.7-0.8-27.3,10.4-28.1,25.1v0
		C698.5,226.1,709.8,238.6,724.5,239.5z"/>
	<path class="st0" d="M416.8,582.7c4.7,14,19.8,21.4,33.8,16.7h0c14-4.7,21.4-19.8,16.7-33.8l-17-50.5c-4.7-14-19.8-21.4-33.8-16.7
		l0,0l-25.3,8.5l-8.5-25.3c-4.7-14-19.8-21.4-33.8-16.7l0,0c-14,4.7-21.4,19.8-16.7,33.8l17,50.5c4.7,14,19.8,21.4,33.8,16.7h0
		l25.3-8.5L416.8,582.7z"/>
	<path class="st0" d="M297.3,268.3c12.1,8.4,28.7,5.3,37.1-6.8l60.6-87.7c8.4-12.1,5.3-28.7-6.8-37.1c-12.1-8.4-28.7-5.3-37.1,6.8
		l-60.6,87.7C282.1,243.3,285.2,259.9,297.3,268.3z"/>
	<path class="st0" d="M355.2,308.3c12.1,8.4,28.7,5.3,37.1-6.8l60.6-87.7c8.4-12.1,5.3-28.7-6.8-37.1c-12.1-8.4-28.7-5.3-37.1,6.8
		l-60.6,87.7C340,283.3,343,299.9,355.2,308.3z"/>
	<path class="st0" d="M145.1,830.2l106.4-7.5c14.7-1,25.8-13.8,24.7-28.5c-1-14.7-13.8-25.8-28.5-24.7L141.4,777
		c-14.7,1-25.8,13.8-24.7,28.5C117.7,820.1,130.4,831.2,145.1,830.2z"/>
	<path class="st0" d="M281.2,864.4c-1-14.7-13.8-25.8-28.5-24.7l-106.4,7.5c-14.7,1-25.8,13.8-24.7,28.5c1,14.7,13.8,25.8,28.5,24.7
		l106.4-7.5C271.1,891.8,282.2,879.1,281.2,864.4z"/>
	<path class="st0" d="M1136.1,736.3c-10.1-10.7-27-11.2-37.7-1.1c-10.7,10.1-11.2,27-1.1,37.7l73.3,77.5c10.1,10.7,27,11.2,37.7,1.1
		c10.7-10.1,11.2-27,1.1-37.7L1136.1,736.3z"/>
	<path class="st0" d="M1085,784.6c-10.1-10.7-27-11.2-37.7-1.1c-10.7,10.1-11.2,27-1.1,37.7l73.3,77.5c10.1,10.7,27,11.2,37.7,1.1
		c10.7-10.1,11.2-27,1.1-37.7L1085,784.6z"/>
	<path class="st0" d="M896.7,0h-62l32,10.2C878.1,13.9,890.2,9.4,896.7,0z"/>
	<path class="st0" d="M726.4,11.4c-4.5,14,3.3,29,17.3,33.5l101.6,32.4c14,4.5,29-3.3,33.5-17.3c4.5-14-3.3-29-17.3-33.5L778.6,0
		h-45C730.4,3,727.8,6.9,726.4,11.4z"/>
	<path class="st0" d="M1028,298.8l24.8,103.7c3.4,14.3,17.8,23.2,32.1,19.7c14.3-3.4,23.2-17.8,19.7-32.1l-24.8-103.7
		c-3.4-14.3-17.8-23.2-32.1-19.7C1033.4,270.1,1024.6,284.4,1028,298.8z"/>
	<path class="st0" d="M1121.2,386.1c3.4,14.3,17.8,23.2,32.1,19.7c14.3-3.4,23.2-17.8,19.7-32.1L1148.3,270
		c-3.4-14.3-17.8-23.2-32.1-19.7c-14.3,3.4-23.2,17.8-19.7,32.1L1121.2,386.1z"/>
	<path class="st0" d="M524.5,8.3c2.7-2.4,4.9-5.2,6.4-8.3h-49.1l5.1,5.9C496.6,16.9,513.4,18,524.5,8.3z"/>
	<path class="st0" d="M99.1,1046.7c-1.2-14.7-14.1-25.6-28.8-24.4c-14.7,1.2-25.6,14.1-24.4,28.8l8.8,106.3
		c1.2,14.7,14.1,25.6,28.8,24.4c14.7-1.2,25.6-14.1,24.4-28.8L99.1,1046.7z"/>
	<path class="st0" d="M310.3,1183.9c-11.4-9.4-28.2-7.7-37.5,3.6l-67.8,82.3c-9.4,11.4-7.7,28.2,3.6,37.5
		c11.4,9.4,28.2,7.7,37.5-3.6l67.8-82.3C323.3,1210,321.7,1193.2,310.3,1183.9z"/>
	<path class="st0" d="M29.1,245.7C29.7,231,18.3,218.6,3.6,218L0,217.9v53.4l1.4,0.1C16.1,271.9,28.5,260.5,29.1,245.7z"/>
	<path class="st0" d="M689.3,395c-0.2-14.7-12.3-26.5-27-26.3l-106.6,1.5c-14.7,0.2-26.5,12.3-26.3,27c0.2,14.7,12.3,26.5,27,26.3
		L663,422C677.7,421.8,689.5,409.7,689.3,395z"/>
	<path class="st0" d="M199.9,503.9c7.4-12.7,3.1-29-9.6-36.5l-92.1-53.8c-12.7-7.4-29-3.1-36.5,9.6c-7.4,12.7-3.1,29,9.6,36.5
		l92.1,53.8C176.1,520.9,192.4,516.6,199.9,503.9z"/>
	<path class="st0" d="M476.9,844.9c13-6.8,18.1-23,11.2-36l-49.5-94.4c-6.8-13-23-18.1-36-11.2c-13,6.8-18.1,23-11.2,36l49.5,94.4
		C447.7,846.7,463.8,851.7,476.9,844.9z"/>
	<path class="st0" d="M1135.2,3.9l6.5-3.9h-39.1C1111.1,8.5,1124.5,10.4,1135.2,3.9z"/>
	
		<ellipse transform="matrix(0.999 -4.563394e-02 4.563394e-02 0.999 -3.7338 46.7799)" class="st0" cx="1022.7" cy="105.2" rx="26.7" ry="26.7"/>
	
		<ellipse transform="matrix(0.9239 -0.3827 0.3827 0.9239 81.3214 516.0858)" class="st0" cx="1337.9" cy="53.6" rx="26.7" ry="26.7"/>
	
		<ellipse transform="matrix(0.9916 -0.1295 0.1295 0.9916 -10.92 74.2895)" class="st0" cx="565.7" cy="121.1" rx="26.7" ry="26.7"/>
	<circle class="st0" cx="880.1" cy="410" r="26.7"/>
	
		<ellipse transform="matrix(0.6573 -0.7536 0.7536 0.6573 -229.4798 670.5286)" class="st0" cx="622.6" cy="587.6" rx="26.7" ry="26.7"/>
	<path class="st0" d="M315.3,26.7C330,26.7,342,14.7,342,0l0,0h-53.3v0C288.6,14.7,300.6,26.7,315.3,26.7z"/>
	
		<ellipse transform="matrix(0.389 -0.9212 0.9212 0.389 -155.3141 311.8849)" class="st0" cx="157.5" cy="273" rx="26.7" ry="26.7"/>
	<circle class="st0" cx="184.1" cy="643.3" r="26.7"/>
	
		<ellipse transform="matrix(2.336005e-02 -0.9997 0.9997 2.336005e-02 -774.874 1279.855)" class="st0" cx="267.6" cy="1036.5" rx="26.7" ry="26.7"/>
	<circle class="st0" cx="595.9" cy="900.4" r="26.7"/>
	
		<ellipse transform="matrix(0.9871 -0.1604 0.1604 0.9871 -140.6374 170.6265)" class="st0" cx="986.7" cy="956.5" rx="26.7" ry="26.7"/>
	<path class="st0" d="M122.3,1387L122.3,1387c-14.3-3.5-28.7,5.4-32.2,19.7l-2.6,10.7h54.8C144.7,1403.6,136,1390.3,122.3,1387z"/>
	<path class="st0" d="M521.1,1122.5l-24.6-10.2l10.2-24.6l0,0c5.6-13.6-0.8-29.2-14.4-34.8l-49.3-20.4c-13.6-5.6-29.2,0.8-34.8,14.4
		l0,0c-5.6,13.6,0.8,29.2,14.4,34.8l24.6,10.2l-10.2,24.6l0,0c-5.6,13.6,0.8,29.2,14.4,34.8l49.3,20.4c13.6,5.6,29.2-0.8,34.8-14.4
		h0C541.1,1143.7,534.7,1128.1,521.1,1122.5z"/>
	<path class="st0" d="M843.6,860l-20.5-17l17-20.5l0,0c9.4-11.3,7.8-28.1-3.5-37.5l-41-34c-11.3-9.4-28.1-7.8-37.5,3.5v0
		c-9.4,11.3-7.8,28.1,3.5,37.5l20.5,17l-17,20.5h0c-9.4,11.3-7.8,28.1,3.5,37.5l41,34c11.3,9.4,28.1,7.8,37.5-3.5h0
		C856.5,886.2,855,869.4,843.6,860z"/>
	<path class="st0" d="M1350.2,557L1350.2,557l-12.7,23.4l-23.4-12.7c-12.9-7-29.1-2.2-36.2,10.7v0c-7,12.9-2.2,29.1,10.7,36.2
		l46.9,25.4c12.9,7,29.1,2.2,36.2-10.7l0,0l12.7-23.4l23.4,12.7c3.1,1.7,6.3,2.7,9.6,3v-58.5l-31-16.8
		C1373.4,539.3,1357.2,544.1,1350.2,557z"/>
	<path class="st0" d="M1286.6,239.3c-0.6,14.7,10.8,27.1,25.6,27.7l105.1,4.2v-53.4l-103-4.2
		C1299.6,213.1,1287.2,224.6,1286.6,239.3z"/>
	<path class="st0" d="M816.2,530.1c-9.8-11-26.7-11.9-37.6-2.1c-11,9.8-11.9,26.7-2.1,37.6l71.1,79.5c9.8,11,26.7,11.9,37.6,2.1
		c11-9.8,11.9-26.7,2.1-37.6L816.2,530.1z"/>
	<circle class="st0" cx="1366.5" cy="852.6" r="26.7"/>
	
		<ellipse transform="matrix(0.3827 -0.9239 0.9239 0.3827 403.6449 1449.6667)" class="st0" cx="1286.6" cy="422.8" rx="26.7" ry="26.7"/>
	
		<ellipse transform="matrix(0.9871 -0.1602 0.1602 0.9871 -81.161 179.5723)" class="st0" cx="1073.2" cy="593.2" rx="26.7" ry="26.7"/>
	<path class="st0" d="M1360.1,1051.1c-6.7-13.1-22.8-18.3-35.9-11.6l-47.5,24.2c-13.1,6.7-18.3,22.8-11.6,35.9v0l12.1,23.7
		l-23.7,12.1c-13.1,6.7-18.3,22.8-11.6,35.9l0,0c6.7,13.1,22.8,18.3,35.9,11.6l47.5-24.2c13.1-6.7,18.3-22.8,11.6-35.9l0,0
		l-12.1-23.7l23.7-12.1C1361.6,1080.2,1366.8,1064.2,1360.1,1051.1L1360.1,1051.1z"/>
	<path class="st0" d="M882.9,1376.7l-101.6-32.4c-14-4.5-29,3.3-33.5,17.3s3.3,29,17.3,33.5l69.6,22.2h62c1.5-2.1,2.7-4.5,3.5-7.1
		C904.6,1396.2,896.9,1381.2,882.9,1376.7z"/>
	<path class="st0" d="M733.6,1417.3h45l-18.7-5.9C750.4,1408.3,740.4,1410.9,733.6,1417.3z"/>
	<path class="st0" d="M527,1388l-70.3-80.2c-9.7-11.1-26.5-12.2-37.6-2.5c-11.1,9.7-12.2,26.5-2.5,37.6l65.2,74.3h49.1
		C535.5,1408,534.3,1396.4,527,1388z"/>
	<path class="st0" d="M1235.4,1329.3c-7.6-12.6-24-16.6-36.6-9l-91.2,55.3c-12.6,7.6-16.6,24-9,36.6c1.1,1.9,2.5,3.6,4,5.1h39.1
		l84.7-51.4C1239,1358.3,1243,1341.9,1235.4,1329.3z"/>
	<path class="st0" d="M1055.7,1089.4c-9.8-11-26.7-11.9-37.6-2.1c-11,9.8-11.9,26.7-2.1,37.6l71,79.6c9.8,11,26.7,11.9,37.6,2.1
		c11-9.8,11.9-26.7,2.1-37.6L1055.7,1089.4z"/>
	<path class="st0" d="M805.5,1057.9l-106.6-1c-14.7-0.1-26.8,11.7-26.9,26.4c-0.1,14.7,11.7,26.8,26.4,26.9l106.6,1
		c14.7,0.1,26.8-11.7,26.9-26.4C832,1070,820.2,1058,805.5,1057.9z"/>
	
		<ellipse transform="matrix(0.7071 -0.7071 0.7071 0.7071 -732.0899 830.0975)" class="st0" cx="636" cy="1298.8" rx="26.7" ry="26.7"/>
	
		<ellipse transform="matrix(0.9726 -0.2324 0.2324 0.9726 -263.929 251.0242)" class="st0" cx="933.4" cy="1245.6" rx="26.7" ry="26.7"/>
	<path class="st0" d="M315.3,1390.7c-14.7,0-26.7,11.9-26.7,26.7H342C342,1402.6,330,1390.7,315.3,1390.7z"/>
</g>
</svg>
