<svg width="905" height="1029" viewBox="0 0 905 1029" fill="none" xmlns="http://www.w3.org/2000/svg">
<path d="M617.384 122.32C617.384 122.32 605.813 125.626 586.804 131.411C583.498 120.667 578.539 108.27 571.927 95.0458C550.438 53.7216 518.205 31.4066 480.187 31.4066C477.708 31.4066 475.228 31.4066 471.922 32.233C471.096 30.5801 469.443 29.7536 468.616 28.1006C452.087 9.91797 430.598 1.65313 404.977 2.47961C355.388 4.13258 305.799 39.6714 266.128 103.311C238.027 147.941 216.539 204.142 210.753 247.945C153.726 265.302 114.055 277.699 113.228 278.525C84.3014 287.617 83.4749 288.443 80.1689 315.717C75.21 336.379 0 919.05 0 919.05L624.822 1027.32V120.667C621.516 121.493 619.036 121.493 617.384 122.32ZM472.749 166.95C439.69 176.868 403.324 188.439 367.785 199.183C377.703 160.338 397.539 121.493 420.68 95.8723C429.772 86.781 442.169 76.0367 456.219 69.4248C470.269 99.1783 473.575 139.676 472.749 166.95ZM405.804 35.539C417.374 35.539 427.292 38.0184 435.557 42.9773C422.333 49.5892 409.11 60.3335 396.712 72.7308C365.306 106.617 341.338 159.512 331.42 209.927C301.667 219.018 271.913 228.11 244.639 236.375C261.995 157.859 328.941 38.0184 405.804 35.539ZM309.105 490.105C312.411 543 452.087 554.571 460.352 679.37C466.137 777.722 408.283 844.667 324.808 849.626C223.977 856.238 168.603 796.731 168.603 796.731L190.091 705.818C190.091 705.818 245.466 747.968 290.096 744.662C319.023 743.009 329.767 719.041 328.941 702.512C324.808 633.087 210.753 637.219 203.315 523.165C196.703 428.119 259.516 331.42 398.365 322.329C452.087 319.023 479.361 332.247 479.361 332.247L447.954 451.26C447.954 451.26 412.416 434.731 370.265 438.037C309.105 442.169 308.279 481.014 309.105 490.105ZM505.808 157.032C505.808 132.238 502.502 96.6988 490.932 66.9454C528.95 74.3837 547.132 116.534 555.397 142.155C540.521 146.288 523.991 151.247 505.808 157.032Z" fill="white"/>
<path d="M645.484 1024.01L905 959.548C905 959.548 793.425 204.969 792.598 200.01C791.772 195.051 787.639 191.745 783.507 191.745C779.374 191.745 706.644 190.092 706.644 190.092C706.644 190.092 662.014 147.115 645.484 130.585V1024.01Z" fill="white"/>
</svg>
