<svg width="905" height="1029" viewBox="0 0 905 1029" fill="none" xmlns="http://www.w3.org/2000/svg">
<path fill-rule="evenodd" clip-rule="evenodd" d="M618.482 126.166L618.84 126.064L619.172 125.898C619.367 125.8 619.763 125.679 620.822 125.493V1022.57L4.45777 915.763L4.81288 913.014C5.36492 908.742 6.17524 902.473 7.20831 894.487C9.27447 878.514 12.2317 855.673 15.7958 828.2C22.9241 773.253 32.4801 699.775 42.191 625.652C51.902 551.528 61.7674 476.762 69.5147 419.239C73.3885 390.476 76.7318 366.03 79.2611 348.134C81.8125 330.08 83.4964 318.993 84.0585 316.651L84.1122 316.427L84.1399 316.198C84.9736 309.32 85.62 304.408 86.5462 300.631C87.4535 296.931 88.5515 294.676 90.0768 292.964C91.6316 291.22 93.936 289.696 97.8875 288.018C101.87 286.327 107.144 284.63 114.428 282.341L115.363 282.047L115.551 281.859C115.819 281.756 116.183 281.623 116.653 281.456C117.883 281.02 119.687 280.412 122.042 279.64C126.743 278.099 133.541 275.936 142.111 273.251C159.246 267.884 183.409 260.449 211.918 251.772L214.382 251.022L214.719 248.469C220.416 205.335 241.662 149.675 269.513 105.442L269.518 105.434L269.522 105.427C308.848 42.3414 357.414 8.06868 405.107 6.4775C429.525 5.69011 449.733 13.4647 465.349 30.4542C466.023 31.5827 466.853 32.4099 467.352 32.9062L467.441 32.9952C468.125 33.6789 468.266 33.8653 468.345 34.0219L469.78 36.8918L472.892 36.1136C475.687 35.4149 477.744 35.4066 480.187 35.4066C516.345 35.4066 547.38 56.5287 568.363 96.8618C574.882 109.904 579.75 122.087 582.981 132.587L584.153 136.399L587.968 135.238C597.46 132.349 605.093 130.08 610.351 128.533C612.98 127.76 615.015 127.168 616.392 126.769C617.08 126.569 617.604 126.418 617.955 126.317L618.351 126.203L618.45 126.175L618.475 126.168L618.481 126.166L618.482 126.166L617.384 122.32L618.482 126.166ZM620.822 121.438C619.43 121.665 618.284 121.869 617.384 122.32C617.384 122.32 605.813 125.626 586.804 131.411C583.498 120.667 578.539 108.27 571.927 95.0458C550.438 53.7216 518.205 31.4066 480.187 31.4066C477.708 31.4066 475.228 31.4066 471.922 32.233C471.509 31.4066 470.889 30.7867 470.269 30.1668C469.65 29.547 469.03 28.9271 468.616 28.1006C452.087 9.91797 430.598 1.65313 404.977 2.47961C355.388 4.13258 305.799 39.6714 266.128 103.311C238.027 147.941 216.539 204.142 210.753 247.945C153.726 265.302 114.055 277.699 113.228 278.525C84.3014 287.617 83.4749 288.443 80.1689 315.717C75.21 336.379 0 919.05 0 919.05L620.822 1026.63L624.822 1027.32V1023.26V124.775V120.667C623.437 121.013 622.197 121.214 621.103 121.392L620.822 121.438ZM473.898 170.781L476.66 169.953L476.747 167.071C477.581 139.554 474.284 98.3115 459.836 67.7168L458.13 64.1046L454.516 65.8055C439.848 72.7082 427.065 83.8312 417.852 93.0439L417.78 93.1158L417.712 93.1912C394.067 119.37 373.961 158.827 363.91 198.193L362.156 205.064L368.943 203.012C385.956 197.868 403.043 192.572 419.856 187.36L419.857 187.359C438.355 181.626 456.522 175.994 473.898 170.781ZM405.804 31.539H405.739L405.675 31.5411C365.267 32.8445 328.32 64.8162 299.647 105.125C270.823 145.645 249.528 195.728 240.734 235.511L239.258 242.185L245.799 240.203C273.071 231.939 302.82 222.848 332.565 213.76L332.578 213.756L332.589 213.753L334.882 213.052L335.345 210.699C345.15 160.857 368.831 108.727 399.595 75.5052C411.827 63.2801 424.682 52.887 437.346 46.555L443.863 43.2963L437.615 39.5474C428.614 34.1469 417.953 31.539 405.804 31.539ZM431.366 45.2088C419.548 51.8783 407.8 61.6435 396.712 72.7308C365.306 106.617 341.338 159.512 331.42 209.927C303.26 218.532 275.1 227.136 249.041 235.04C247.567 235.487 246.1 235.932 244.639 236.375C244.967 234.891 245.313 233.393 245.676 231.881C264.529 153.372 330.393 37.9716 405.804 35.539C415.438 35.539 423.926 37.258 431.269 40.696C432.745 41.387 434.174 42.1475 435.557 42.9773C434.16 43.676 432.762 44.4208 431.366 45.2088ZM313.097 489.856L313.094 489.799L313.089 489.743C312.719 485.675 312.726 474.759 319.745 464.465C326.634 454.362 340.847 444.034 370.534 442.028L370.556 442.026L370.578 442.025C391.071 440.417 410.025 443.632 423.9 447.278C430.825 449.097 436.454 451.016 440.337 452.474C442.278 453.203 443.78 453.815 444.788 454.241C444.993 454.328 445.178 454.407 445.342 454.478C445.58 454.58 445.773 454.665 445.92 454.731C446.045 454.786 446.137 454.828 446.195 454.854L446.257 454.882L446.267 454.887L446.268 454.888L446.269 454.888L446.27 454.888L450.602 456.904L451.822 452.281L483.228 333.267L484.068 330.084L481.106 328.648L479.361 332.247C481.106 328.648 481.104 328.647 481.102 328.646L481.098 328.644L481.089 328.639L481.061 328.626C481.04 328.616 481.011 328.602 480.976 328.586C480.907 328.553 480.81 328.509 480.686 328.453C480.439 328.342 480.086 328.186 479.625 327.994C478.703 327.609 477.355 327.077 475.581 326.457C472.032 325.215 466.782 323.619 459.845 322.137C445.966 319.17 425.353 316.661 398.12 318.337L398.112 318.337L398.104 318.338C327.754 322.944 276.29 349.793 243.269 387.894C210.284 425.954 195.953 474.955 199.324 523.434C201.232 552.667 209.999 574.501 222.232 591.847C234.419 609.127 249.929 621.781 265.007 632.804C268.801 635.577 272.543 638.232 276.194 640.823C287.24 648.661 297.461 655.913 305.815 664.097C316.727 674.785 323.985 686.661 324.947 702.73C325.312 710.131 323.067 719.31 317.476 726.766C311.972 734.104 303.133 739.911 289.868 740.669L289.834 740.671L289.8 740.673C268.653 742.24 244.493 732.986 225.206 722.933C215.648 717.95 207.453 712.861 201.65 709.017C198.75 707.097 196.452 705.491 194.886 704.37C194.103 703.809 193.503 703.37 193.102 703.074C192.902 702.926 192.751 702.813 192.653 702.739L192.544 702.657L192.519 702.638L192.514 702.635L192.513 702.634L187.615 698.906L186.199 704.898L164.71 795.811L164.218 797.891L165.674 799.456L168.603 796.731C165.674 799.456 165.676 799.457 165.678 799.459L165.682 799.464L165.695 799.478L165.736 799.521C165.77 799.557 165.817 799.607 165.879 799.671L165.973 799.769L166.03 799.828C166.133 799.934 166.259 800.063 166.408 800.213C166.868 800.678 167.545 801.345 168.434 802.184C170.213 803.863 172.846 806.229 176.314 809.035C183.249 814.646 193.534 822.027 207.017 829.19C233.996 843.523 273.779 856.978 325.059 853.618C367.845 851.073 404.235 832.61 429.153 802.048C454.057 771.503 467.287 729.148 464.345 679.135L464.344 679.12L464.343 679.106C460.089 614.878 421.87 579.837 385.141 554.482C377.416 549.149 369.714 544.215 362.419 539.543L362.414 539.539L362.378 539.516C361.036 538.657 359.708 537.806 358.396 536.963C349.9 531.506 342.099 526.391 335.4 521.266C321.846 510.896 313.807 501.209 313.097 489.856ZM324.808 849.626C223.977 856.238 168.603 796.731 168.603 796.731L189.09 710.053L190.091 705.818C190.091 705.818 191.335 706.764 193.6 708.363C206.448 717.431 252.154 747.473 290.096 744.662C319.023 743.009 329.767 719.041 328.941 702.512C327.127 672.049 304.151 655.749 278.304 637.412C245.245 613.959 207.49 587.174 203.315 523.165C196.703 428.119 259.516 331.42 398.365 322.329C452.087 319.023 479.361 332.247 479.361 332.247L448.989 447.34L447.954 451.26C447.954 451.26 446.645 450.652 444.232 449.691C434.069 445.646 404.326 435.365 370.265 438.037C309.105 442.169 308.279 481.014 309.105 490.105C310.41 510.978 332.95 525.417 360.271 542.917C402.184 569.764 455.348 603.819 460.352 679.37C466.137 777.722 408.283 844.667 324.808 849.626ZM501.808 157.032V162.502L507.021 160.844C525.167 155.07 541.648 150.126 556.468 146.01L560.484 144.894L559.204 140.927C555.021 127.959 548.261 110.578 537.592 95.4288C526.917 80.2697 512.078 67.0069 491.7 63.0198L484.571 61.625L487.203 68.3952C498.522 97.4989 501.808 132.482 501.808 157.032ZM472.749 166.95C473.542 140.775 470.529 102.419 457.865 73.071C457.374 71.9331 456.869 70.8087 456.348 69.6991C456.305 69.6076 456.262 69.5162 456.219 69.4248L456.024 69.5168C454.885 70.0566 453.757 70.6234 452.641 71.2142C440.066 77.8681 428.992 87.561 420.68 95.8723C398.441 120.494 379.255 157.328 368.991 194.639C368.574 196.153 368.172 197.668 367.785 199.183C369.28 198.731 370.776 198.278 372.273 197.823C387.715 193.134 403.28 188.31 418.631 183.552L418.632 183.551L418.638 183.549C437.187 177.8 455.422 172.148 472.749 166.95ZM492.589 71.4026C502.229 98.5232 505.438 129.627 505.777 152.845C505.798 154.271 505.808 155.668 505.808 157.032C507.15 156.605 508.482 156.183 509.805 155.765C524.886 151.004 538.798 146.827 551.542 143.234C552.839 142.869 554.124 142.509 555.397 142.155C555 140.925 554.58 139.656 554.136 138.354C545.729 113.707 528.718 77.4146 495.635 68.0673C494.102 67.6342 492.534 67.259 490.932 66.9454C491.504 68.4176 492.056 69.904 492.589 71.4026ZM649.484 134.56C668.236 153.107 706.644 190.092 706.644 190.092C703.869 192.973 703.869 192.973 703.869 192.973L703.867 192.971L703.861 192.965L703.837 192.942L703.74 192.849L703.363 192.486C703.032 192.167 702.544 191.697 701.918 191.093C700.665 189.885 698.856 188.141 696.634 185.997C692.191 181.708 686.093 175.817 679.479 169.41C669.342 159.589 657.973 148.538 649.484 140.18V1018.9L900.512 956.542L899.79 951.658L896.247 927.701L894.251 914.202C891.406 894.96 887.78 870.444 883.596 842.153C873.123 771.334 859.151 676.856 845.152 582.224C831.153 487.592 817.129 392.804 806.553 321.365C801.264 285.646 796.838 255.764 793.708 234.657C792.143 224.103 790.903 215.744 790.04 209.945C789.609 207.046 789.272 204.788 789.037 203.217C788.92 202.431 788.828 201.818 788.762 201.383L788.702 200.986L788.684 200.869L788.661 200.72L788.653 200.67L788.653 200.667C788.129 197.526 785.573 195.745 783.507 195.745C781.382 195.745 762.09 195.33 743.437 194.917C734.087 194.711 724.866 194.504 717.982 194.349C714.541 194.272 711.683 194.207 709.686 194.162L707.371 194.109L706.762 194.096L706.606 194.092L706.566 194.091L706.556 194.091L706.554 194.091L704.993 194.055L703.869 192.973L706.644 190.092C706.644 190.092 779.374 191.745 783.507 191.745C787.639 191.745 791.772 195.051 792.598 200.01C793.425 204.969 905 959.548 905 959.548L649.484 1023.02L645.484 1024.01V1019.89V136.229V130.585C646.679 131.78 648.022 133.114 649.484 134.56Z" fill="white"/>
</svg>
